<svg xmlns="http://www.w3.org/2000/svg" width="310" height="111" fill="none" viewBox="0 0 310 111"><path fill="currentColor" d="M181.692 73.6h10.1q3.8 0 3.8 1.8 0 1.6-3.6 1.6h-12.5q-7.8 0-7.8-7.3V47.6q0-7.2 8-7.2h8.3q3.7 0 5.6 1.6 2 1.5 2 4.4v11.5q0 3.7-2 5.3-1.9 1.6-5.6 1.6h-6.1q-3 0-3 4.5 0 4.3 2.8 4.3m-2.8-24.8v7.5q0 5 4.9 5 4.6 0 4.6-5v-7.5q0-5-4.6-5-4.9 0-4.9 5M154.994 67.7V50.8q0-5.2 3.5-5.2 3.7 0 3.7 4.6V70q0 3.8-2 5.4-1.9 1.6-5.6 1.6h-8.6q-4 0-5.9-1.5-1.9-1.6-1.9-5.3V50.3q0-4.7 3.8-4.7 3.5 0 3.5 5.2v17q0 5.7 4.1 5.7h1.4q4 0 4-5.8M112.095 67.4q0 6.2 4 6.2h1.3q4.2 0 4.2-6.1V55.7q0-6.4-4-6.4h-1.4q-4.1 0-4.1 6zm16.6-14.6v31.7q0 4.7-3.6 4.7-3.5 0-3.5-5.2v-1.8q0-5.2-5.9-5.2h-3q-3.999 0-6-1.6-1.9-1.6-1.9-5.4V52.8q0-3.3 1.9-5.1 2.001-1.9 6-1.9h8.4q3.801 0 5.7 1.9 1.9 1.8 1.9 5.1M84.797 43.9h-8.5q-3.8 0-3.8-1.8 0-1.7 3.6-1.7h11.9q7.4 0 7.4 7.6v21.8q0 7.2-7.4 7.2h-8.4q-8.1 0-8.1-5.9v-13q0-2.5 1.9-4 1.9-1.6 5.9-1.6h5.3q3.6 0 3.6-3.6v-1q0-4-3.4-4m-6.2 16.9v7.6q0 5.2 4.9 5.2 4.7 0 4.7-5.2v-7.6q0-4.9-4.7-4.9-4.9 0-4.9 4.9M54.798 67.4V55.3q0-6-4.2-6h-1.3q-4 0-4 6.4v11.8q0 6.1 4.1 6.1h1.4q4 0 4-6.2m-16.8-14.6q0-3.3 1.9-5.1 2.001-1.9 6-1.9h8.5q3.7 0 5.6 1.9 2 1.8 2 5.1V70q0 3.8-2 5.4-1.9 1.6-5.6 1.6h-3.2q-5.8 0-5.8 5.2V84q0 5.2-3.6 5.2-3.8 0-3.8-4.7zM28.6 70.1q0 3.7-2 5.3Q24.7 77 21 77h-8.3q-8 0-8-6.9V52.8q0-3.2 1.9-5.1t5.9-1.9H21q3.7 0 5.6 1.9 2 1.9 2 5.2zm-7.2-2.6V55.3q0-5.9-4.2-5.9h-1.3q-3.9 0-3.9 6.4v11.8q0 6 4 6h1.5q3.9 0 3.9-6.1"/><rect width="99" height="99" x="204" y="6" fill="#d30001" rx="49.5"/><path fill="#fff" d="M261.962 45.8q5.7 0 5.7-5.3v-3.4q0-5.1 3.5-5.1 3.7 0 3.7 4.6v33.8q0 3.6-2 5.2-1.9 1.6-5.7 1.6h-8.3q-4 0-6-1.6-2-1.7-2-5.5l.1-17.5q0-6.7 7.8-6.8zm-3.8 21.8q0 6.2 4 6.2h1.3q4.2 0 4.2-6.1V55.9q0-6.6-3.9-6.6h-1.5q-4 0-4 6.1zM237.2 37.1q-3.8 0-3.8-2.7t3.8-2.7q3.6 0 3.6 2.7t-3.6 2.7m0 40.3q-3.7 0-3.7-4.6V50.7q0-4.7 3.7-4.7 3.5 0 3.5 4.5v22.2q0 4.7-3.5 4.7"/></svg>
