<svg width="830" height="276" viewBox="0 0 830 276" fill="none" xmlns="http://www.w3.org/2000/svg">
<rect width="830" height="276" fill="white"/>
<path d="M442.992 156.6H453.092C455.626 156.6 456.892 157.2 456.892 158.4C456.892 159.467 455.692 160 453.292 160H440.792C435.592 160 432.992 157.567 432.992 152.7V130.6C432.992 125.8 435.659 123.4 440.992 123.4H449.292C451.759 123.4 453.626 123.933 454.892 125C456.226 126 456.892 127.467 456.892 129.4V140.9C456.892 143.367 456.226 145.133 454.892 146.2C453.626 147.267 451.759 147.8 449.292 147.8H443.192C441.192 147.8 440.192 149.3 440.192 152.3C440.192 155.167 441.126 156.6 442.992 156.6ZM440.192 131.8V139.3C440.192 142.633 441.826 144.3 445.092 144.3C448.159 144.3 449.692 142.633 449.692 139.3V131.8C449.692 128.467 448.159 126.8 445.092 126.8C441.826 126.8 440.192 128.467 440.192 131.8Z" fill="black"/>
<path d="M416.294 150.7V133.8C416.294 130.333 417.46 128.6 419.794 128.6C422.26 128.6 423.494 130.133 423.494 133.2V153C423.494 155.533 422.827 157.333 421.494 158.4C420.227 159.467 418.36 160 415.894 160H407.294C404.627 160 402.66 159.5 401.394 158.5C400.127 157.433 399.494 155.667 399.494 153.2V133.3C399.494 130.167 400.76 128.6 403.294 128.6C405.627 128.6 406.794 130.333 406.794 133.8V150.8C406.794 154.6 408.16 156.5 410.894 156.5H412.294C414.96 156.5 416.294 154.567 416.294 150.7Z" fill="black"/>
<path d="M373.395 150.4C373.395 154.533 374.729 156.6 377.395 156.6H378.695C381.495 156.6 382.895 154.567 382.895 150.5V138.7C382.895 134.433 381.562 132.3 378.895 132.3H377.495C374.762 132.3 373.395 134.3 373.395 138.3V150.4ZM389.995 135.8V167.5C389.995 170.633 388.795 172.2 386.395 172.2C384.062 172.2 382.895 170.467 382.895 167V165.2C382.895 161.733 380.929 160 376.995 160H373.995C371.329 160 369.329 159.467 367.995 158.4C366.729 157.333 366.095 155.533 366.095 153V135.8C366.095 133.6 366.729 131.9 367.995 130.7C369.329 129.433 371.329 128.8 373.995 128.8H382.395C384.929 128.8 386.829 129.433 388.095 130.7C389.362 131.9 389.995 133.6 389.995 135.8Z" fill="black"/>
<path d="M346.097 126.9H337.597C335.064 126.9 333.797 126.3 333.797 125.1C333.797 123.967 334.997 123.4 337.397 123.4H349.297C354.23 123.4 356.697 125.933 356.697 131V152.8C356.697 157.6 354.23 160 349.297 160H340.897C335.497 160 332.797 158.033 332.797 154.1V141.1C332.797 139.433 333.43 138.1 334.697 137.1C335.964 136.033 337.93 135.5 340.597 135.5H345.897C348.297 135.5 349.497 134.3 349.497 131.9V130.9C349.497 128.233 348.364 126.9 346.097 126.9ZM339.897 143.8V151.4C339.897 154.867 341.53 156.6 344.797 156.6C347.93 156.6 349.497 154.867 349.497 151.4V143.8C349.497 140.533 347.93 138.9 344.797 138.9C341.53 138.9 339.897 140.533 339.897 143.8Z" fill="black"/>
<path d="M316.098 150.4V138.3C316.098 134.3 314.698 132.3 311.898 132.3H310.598C307.932 132.3 306.598 134.433 306.598 138.7V150.5C306.598 154.567 307.965 156.6 310.698 156.6H312.098C314.765 156.6 316.098 154.533 316.098 150.4ZM299.298 135.8C299.298 133.6 299.932 131.9 301.198 130.7C302.532 129.433 304.532 128.8 307.198 128.8H315.698C318.165 128.8 320.032 129.433 321.298 130.7C322.632 131.9 323.298 133.6 323.298 135.8V153C323.298 155.533 322.632 157.333 321.298 158.4C320.032 159.467 318.165 160 315.698 160H312.498C308.632 160 306.698 161.733 306.698 165.2V167C306.698 170.467 305.498 172.2 303.098 172.2C300.565 172.2 299.298 170.633 299.298 167.5V135.8Z" fill="black"/>
<path d="M289.9 153.1C289.9 155.567 289.233 157.333 287.9 158.4C286.633 159.467 284.767 160 282.3 160H274C268.667 160 266 157.7 266 153.1V135.8C266 133.667 266.633 131.967 267.9 130.7C269.167 129.433 271.133 128.8 273.8 128.8H282.3C284.767 128.8 286.633 129.433 287.9 130.7C289.233 131.967 289.9 133.7 289.9 135.9V153.1ZM282.7 150.5V138.3C282.7 134.367 281.3 132.4 278.5 132.4H277.2C274.6 132.4 273.3 134.533 273.3 138.8V150.6C273.3 154.6 274.633 156.6 277.3 156.6H278.8C281.4 156.6 282.7 154.567 282.7 150.5Z" fill="black"/>
<rect x="465.3" y="89" width="99" height="99" rx="49.5" fill="#D30001"/>
<path d="M523.262 128.8C527.062 128.8 528.962 127.033 528.962 123.5V120.1C528.962 116.7 530.128 115 532.462 115C534.928 115 536.162 116.533 536.162 119.6V153.4C536.162 155.8 535.495 157.533 534.162 158.6C532.895 159.667 530.995 160.2 528.462 160.2H520.162C517.495 160.2 515.495 159.667 514.162 158.6C512.828 157.467 512.162 155.633 512.162 153.1L512.262 135.6C512.262 131.133 514.862 128.867 520.062 128.8H523.262ZM519.462 150.6C519.462 154.733 520.795 156.8 523.462 156.8H524.762C527.562 156.8 528.962 154.767 528.962 150.7V138.9C528.962 134.5 527.662 132.3 525.062 132.3H523.562C520.895 132.3 519.562 134.333 519.562 138.4L519.462 150.6Z" fill="white"/>
<path d="M498.5 120.1C495.967 120.1 494.7 119.2 494.7 117.4C494.7 115.6 495.967 114.7 498.5 114.7C500.9 114.7 502.1 115.6 502.1 117.4C502.1 119.2 500.9 120.1 498.5 120.1ZM498.5 160.4C496.033 160.4 494.8 158.867 494.8 155.8V133.7C494.8 130.567 496.033 129 498.5 129C500.833 129 502 130.5 502 133.5V155.7C502 158.833 500.833 160.4 498.5 160.4Z" fill="white"/>
</svg>
